<svg width="1363" height="163" viewBox="0 0 1363 163" fill="none" xmlns="http://www.w3.org/2000/svg">
<path d="M0 15C0 6.71573 6.71573 0 15 0H37V163H15C6.71573 163 0 156.284 0 148V15Z" fill="#424242"/>
<rect width="1097" height="163" transform="translate(37)" fill="#F0F0F0"/>
<path d="M101.906 53.9219L94.3945 51.2383V48.0859L104.602 52.375V54.6367L101.906 53.9219ZM94.3945 56.1719L101.918 53.4297L104.602 52.7852V55.0352L94.3945 59.3242V56.1719ZM119.578 53.5117H115.195L115.172 51.0977H118.852C119.5 51.0977 120.031 51.0156 120.445 50.8516C120.859 50.6797 121.168 50.4336 121.371 50.1133C121.582 49.7852 121.688 49.3867 121.688 48.918C121.688 48.3867 121.586 47.957 121.383 47.6289C121.188 47.3008 120.879 47.0625 120.457 46.9141C120.043 46.7656 119.508 46.6914 118.852 46.6914H116.414V61H112.898V43.9375H118.852C119.844 43.9375 120.73 44.0312 121.512 44.2188C122.301 44.4062 122.969 44.6914 123.516 45.0742C124.062 45.457 124.48 45.9414 124.77 46.5273C125.059 47.1055 125.203 47.793 125.203 48.5898C125.203 49.293 125.043 49.9414 124.723 50.5352C124.41 51.1289 123.914 51.6133 123.234 51.9883C122.562 52.3633 121.684 52.5703 120.598 52.6094L119.578 53.5117ZM119.426 61H114.234L115.605 58.2578H119.426C120.043 58.2578 120.547 58.1602 120.938 57.9648C121.328 57.7617 121.617 57.4883 121.805 57.1445C121.992 56.8008 122.086 56.4062 122.086 55.9609C122.086 55.4609 122 55.0273 121.828 54.6602C121.664 54.293 121.398 54.0117 121.031 53.8164C120.664 53.6133 120.18 53.5117 119.578 53.5117H116.191L116.215 51.0977H120.434L121.242 52.0469C122.281 52.0312 123.117 52.2148 123.75 52.5977C124.391 52.9727 124.855 53.4609 125.145 54.0625C125.441 54.6641 125.59 55.3086 125.59 55.9961C125.59 57.0898 125.352 58.0117 124.875 58.7617C124.398 59.5039 123.699 60.0625 122.777 60.4375C121.863 60.8125 120.746 61 119.426 61ZM134.859 58.1406V52.4922C134.859 52.0859 134.793 51.7383 134.66 51.4492C134.527 51.1523 134.32 50.9219 134.039 50.7578C133.766 50.5938 133.41 50.5117 132.973 50.5117C132.598 50.5117 132.273 50.5781 132 50.7109C131.727 50.8359 131.516 51.0195 131.367 51.2617C131.219 51.4961 131.145 51.7734 131.145 52.0938H127.77C127.77 51.5547 127.895 51.043 128.145 50.5586C128.395 50.0742 128.758 49.6484 129.234 49.2812C129.711 48.9062 130.277 48.6133 130.934 48.4023C131.598 48.1914 132.34 48.0859 133.16 48.0859C134.145 48.0859 135.02 48.25 135.785 48.5781C136.551 48.9062 137.152 49.3984 137.59 50.0547C138.035 50.7109 138.258 51.5312 138.258 52.5156V57.9414C138.258 58.6367 138.301 59.207 138.387 59.6523C138.473 60.0898 138.598 60.4727 138.762 60.8008V61H135.352C135.188 60.6562 135.062 60.2266 134.977 59.7109C134.898 59.1875 134.859 58.6641 134.859 58.1406ZM135.305 53.2773L135.328 55.1875H133.441C132.996 55.1875 132.609 55.2383 132.281 55.3398C131.953 55.4414 131.684 55.5859 131.473 55.7734C131.262 55.9531 131.105 56.1641 131.004 56.4062C130.91 56.6484 130.863 56.9141 130.863 57.2031C130.863 57.4922 130.93 57.7539 131.062 57.9883C131.195 58.2148 131.387 58.3945 131.637 58.5273C131.887 58.6523 132.18 58.7148 132.516 58.7148C133.023 58.7148 133.465 58.6133 133.84 58.4102C134.215 58.207 134.504 57.957 134.707 57.6602C134.918 57.3633 135.027 57.082 135.035 56.8164L135.926 58.2461C135.801 58.5664 135.629 58.8984 135.41 59.2422C135.199 59.5859 134.93 59.9102 134.602 60.2148C134.273 60.5117 133.879 60.7578 133.418 60.9531C132.957 61.1406 132.41 61.2344 131.777 61.2344C130.973 61.2344 130.242 61.0742 129.586 60.7539C128.938 60.4258 128.422 59.9766 128.039 59.4062C127.664 58.8281 127.477 58.1719 127.477 57.4375C127.477 56.7734 127.602 56.1836 127.852 55.668C128.102 55.1523 128.469 54.7188 128.953 54.3672C129.445 54.0078 130.059 53.7383 130.793 53.5586C131.527 53.3711 132.379 53.2773 133.348 53.2773H135.305ZM148.348 58.2344V43H151.746V61H148.688L148.348 58.2344ZM140.332 54.8125V54.5664C140.332 53.5977 140.441 52.7188 140.66 51.9297C140.879 51.1328 141.199 50.4492 141.621 49.8789C142.043 49.3086 142.562 48.8672 143.18 48.5547C143.797 48.2422 144.5 48.0859 145.289 48.0859C146.031 48.0859 146.68 48.2422 147.234 48.5547C147.797 48.8672 148.273 49.3125 148.664 49.8906C149.062 50.4609 149.383 51.1367 149.625 51.918C149.867 52.6914 150.043 53.5391 150.152 54.4609V55C150.043 55.8828 149.867 56.7031 149.625 57.4609C149.383 58.2188 149.062 58.8828 148.664 59.4531C148.273 60.0156 147.797 60.4531 147.234 60.7656C146.672 61.0781 146.016 61.2344 145.266 61.2344C144.477 61.2344 143.773 61.0742 143.156 60.7539C142.547 60.4336 142.031 59.9844 141.609 59.4062C141.195 58.8281 140.879 58.1484 140.66 57.3672C140.441 56.5859 140.332 55.7344 140.332 54.8125ZM143.707 54.5664V54.8125C143.707 55.3359 143.746 55.8242 143.824 56.2773C143.91 56.7305 144.047 57.1328 144.234 57.4844C144.43 57.8281 144.68 58.0977 144.984 58.293C145.297 58.4805 145.676 58.5742 146.121 58.5742C146.699 58.5742 147.176 58.4453 147.551 58.1875C147.926 57.9219 148.211 57.5586 148.406 57.0977C148.609 56.6367 148.727 56.1055 148.758 55.5039V53.9688C148.734 53.4766 148.664 53.0352 148.547 52.6445C148.438 52.2461 148.273 51.9062 148.055 51.625C147.844 51.3438 147.578 51.125 147.258 50.9688C146.945 50.8125 146.574 50.7344 146.145 50.7344C145.707 50.7344 145.332 50.8359 145.02 51.0391C144.707 51.2344 144.453 51.5039 144.258 51.8477C144.07 52.1914 143.93 52.5977 143.836 53.0664C143.75 53.5273 143.707 54.0273 143.707 54.5664ZM161.871 58.2344V43H165.27V61H162.211L161.871 58.2344ZM153.855 54.8125V54.5664C153.855 53.5977 153.965 52.7188 154.184 51.9297C154.402 51.1328 154.723 50.4492 155.145 49.8789C155.566 49.3086 156.086 48.8672 156.703 48.5547C157.32 48.2422 158.023 48.0859 158.812 48.0859C159.555 48.0859 160.203 48.2422 160.758 48.5547C161.32 48.8672 161.797 49.3125 162.188 49.8906C162.586 50.4609 162.906 51.1367 163.148 51.918C163.391 52.6914 163.566 53.5391 163.676 54.4609V55C163.566 55.8828 163.391 56.7031 163.148 57.4609C162.906 58.2188 162.586 58.8828 162.188 59.4531C161.797 60.0156 161.32 60.4531 160.758 60.7656C160.195 61.0781 159.539 61.2344 158.789 61.2344C158 61.2344 157.297 61.0742 156.68 60.7539C156.07 60.4336 155.555 59.9844 155.133 59.4062C154.719 58.8281 154.402 58.1484 154.184 57.3672C153.965 56.5859 153.855 55.7344 153.855 54.8125ZM157.23 54.5664V54.8125C157.23 55.3359 157.27 55.8242 157.348 56.2773C157.434 56.7305 157.57 57.1328 157.758 57.4844C157.953 57.8281 158.203 58.0977 158.508 58.293C158.82 58.4805 159.199 58.5742 159.645 58.5742C160.223 58.5742 160.699 58.4453 161.074 58.1875C161.449 57.9219 161.734 57.5586 161.93 57.0977C162.133 56.6367 162.25 56.1055 162.281 55.5039V53.9688C162.258 53.4766 162.188 53.0352 162.07 52.6445C161.961 52.2461 161.797 51.9062 161.578 51.625C161.367 51.3438 161.102 51.125 160.781 50.9688C160.469 50.8125 160.098 50.7344 159.668 50.7344C159.23 50.7344 158.855 50.8359 158.543 51.0391C158.23 51.2344 157.977 51.5039 157.781 51.8477C157.594 52.1914 157.453 52.5977 157.359 53.0664C157.273 53.5273 157.23 54.0273 157.23 54.5664ZM171.469 48.3203V61H168.082V48.3203H171.469ZM167.871 45.0156C167.871 44.5234 168.043 44.1172 168.387 43.7969C168.73 43.4766 169.191 43.3164 169.77 43.3164C170.34 43.3164 170.797 43.4766 171.141 43.7969C171.492 44.1172 171.668 44.5234 171.668 45.0156C171.668 45.5078 171.492 45.9141 171.141 46.2344C170.797 46.5547 170.34 46.7148 169.77 46.7148C169.191 46.7148 168.73 46.5547 168.387 46.2344C168.043 45.9141 167.871 45.5078 167.871 45.0156ZM177.82 43V61H174.434V43H177.82Z" fill="#888888"/>
<path d="M114.117 84.875H122.344V107.164C122.344 109.82 121.789 112.07 120.68 113.914C119.57 115.742 118.016 117.125 116.016 118.062C114.016 119 111.664 119.469 108.961 119.469C106.289 119.469 103.938 119 101.906 118.062C99.8906 117.125 98.3125 115.742 97.1719 113.914C96.0469 112.07 95.4844 109.82 95.4844 107.164V84.875H103.734V107.164C103.734 108.57 103.938 109.719 104.344 110.609C104.75 111.484 105.344 112.125 106.125 112.531C106.906 112.938 107.852 113.141 108.961 113.141C110.086 113.141 111.031 112.938 111.797 112.531C112.562 112.125 113.141 111.484 113.531 110.609C113.922 109.719 114.117 108.57 114.117 107.164V84.875ZM136.266 84.875V119H128.062V84.875H136.266ZM172.523 84.875H180.75V107.164C180.75 109.82 180.195 112.07 179.086 113.914C177.977 115.742 176.422 117.125 174.422 118.062C172.422 119 170.07 119.469 167.367 119.469C164.695 119.469 162.344 119 160.312 118.062C158.297 117.125 156.719 115.742 155.578 113.914C154.453 112.07 153.891 109.82 153.891 107.164V84.875H162.141V107.164C162.141 108.57 162.344 109.719 162.75 110.609C163.156 111.484 163.75 112.125 164.531 112.531C165.312 112.938 166.258 113.141 167.367 113.141C168.492 113.141 169.438 112.938 170.203 112.531C170.969 112.125 171.547 111.484 171.938 110.609C172.328 109.719 172.523 108.57 172.523 107.164V84.875ZM193.078 84.875L198.656 96.2188L204.234 84.875H213.609L204.094 101.797L213.867 119H204.398L198.656 107.445L192.914 119H183.422L193.219 101.797L183.68 84.875H193.078Z" fill="black"/>
<path d="M1134 0H1348C1356.28 0 1363 6.71573 1363 15V148C1363 156.284 1356.28 163 1348 163H1134V0Z" fill="#E60000"/>
<path d="M1248.5 111.917C1244.51 111.917 1240.55 111.13 1236.86 109.601C1233.17 108.073 1229.82 105.832 1226.99 103.008C1221.29 97.3036 1218.08 89.567 1218.08 81.5C1218.08 73.433 1221.29 65.6964 1226.99 59.9922C1232.7 54.2879 1240.43 51.0833 1248.5 51.0833C1265.23 51.0833 1278.92 63.25 1278.92 78.4583C1278.92 83.2985 1276.99 87.9405 1273.57 91.363C1270.15 94.7856 1265.51 96.7083 1260.67 96.7083H1255.19C1254.28 96.7083 1253.67 97.3167 1253.67 98.2292C1253.67 98.5333 1253.97 98.8375 1253.97 99.1417C1255.19 100.662 1255.8 102.487 1255.8 104.312C1256.1 108.571 1252.76 111.917 1248.5 111.917ZM1248.5 57.1667C1242.05 57.1667 1235.86 59.7303 1231.29 64.2937C1226.73 68.8571 1224.17 75.0464 1224.17 81.5C1224.17 87.9536 1226.73 94.1429 1231.29 98.7063C1235.86 103.27 1242.05 105.833 1248.5 105.833C1249.41 105.833 1250.02 105.225 1250.02 104.312C1250.02 103.704 1249.72 103.4 1249.72 103.096C1248.5 101.575 1247.89 100.054 1247.89 98.2292C1247.89 93.9708 1251.24 90.625 1255.5 90.625H1260.67C1263.89 90.625 1266.99 89.3432 1269.27 87.0615C1271.55 84.7798 1272.83 81.6851 1272.83 78.4583C1272.83 66.5958 1261.88 57.1667 1248.5 57.1667ZM1231.77 75.4167C1234.2 75.4167 1236.33 77.5458 1236.33 79.9792C1236.33 82.4125 1234.2 84.5417 1231.77 84.5417C1229.34 84.5417 1227.21 82.4125 1227.21 79.9792C1227.21 77.5458 1229.34 75.4167 1231.77 75.4167ZM1240.9 63.25C1243.33 63.25 1245.46 65.3792 1245.46 67.8125C1245.46 70.2458 1243.33 72.375 1240.9 72.375C1238.46 72.375 1236.33 70.2458 1236.33 67.8125C1236.33 65.3792 1238.46 63.25 1240.9 63.25ZM1256.1 63.25C1258.54 63.25 1260.67 65.3792 1260.67 67.8125C1260.67 70.2458 1258.54 72.375 1256.1 72.375C1253.67 72.375 1251.54 70.2458 1251.54 67.8125C1251.54 65.3792 1253.67 63.25 1256.1 63.25ZM1265.23 75.4167C1267.66 75.4167 1269.79 77.5458 1269.79 79.9792C1269.79 82.4125 1267.66 84.5417 1265.23 84.5417C1262.8 84.5417 1260.67 82.4125 1260.67 79.9792C1260.67 77.5458 1262.8 75.4167 1265.23 75.4167Z" fill="white"/>
</svg>
